# Blender v2.81 (sub 16) OBJ File: ''
# www.blender.org
mtllib Measurer-side.mtl
o Cylinder
v 0.000000 0.000000 -10.000000
v 0.000000 200.000000 -10.000000
v 1.950903 0.000000 -9.807853
v 1.950903 200.000000 -9.807853
v 3.826835 0.000000 -9.238795
v 3.826835 200.000000 -9.238795
v 5.555702 0.000000 -8.314696
v 5.555702 200.000000 -8.314696
v 7.071068 0.000000 -7.071068
v 7.071068 200.000000 -7.071068
v 8.314696 0.000000 -5.555702
v 8.314696 200.000000 -5.555702
v 9.238795 0.000000 -3.826834
v 9.238795 200.000000 -3.826834
v 9.807853 0.000000 -1.950904
v 9.807853 200.000000 -1.950904
v 10.000000 0.000000 -0.000001
v 10.000000 200.000000 -0.000001
v 9.807853 0.000000 1.950902
v 9.807853 200.000000 1.950902
v 9.238795 0.000000 3.826833
v 9.238795 200.000000 3.826833
v 8.314696 0.000000 5.555702
v 8.314696 200.000000 5.555702
v 7.071068 0.000000 7.071068
v 7.071068 200.000000 7.071068
v 5.555702 0.000000 8.314696
v 5.555702 200.000000 8.314696
v 3.826833 0.000000 9.238796
v 3.826833 200.000000 9.238796
v 1.950901 0.000000 9.807853
v 1.950901 200.000000 9.807853
v -0.000003 0.000000 10.000000
v -0.000003 200.000000 10.000000
v -1.950907 0.000000 9.807852
v -1.950907 200.000000 9.807852
v -3.826839 0.000000 9.238793
v -3.826839 200.000000 9.238793
v -5.555707 0.000000 8.314693
v -5.555707 200.000000 8.314693
v -7.071073 0.000000 7.071064
v -7.071073 200.000000 7.071064
v -8.314700 0.000000 5.555696
v -8.314700 200.000000 5.555696
v -9.238798 0.000000 3.826827
v -9.238798 200.000000 3.826827
v -9.807855 0.000000 1.950895
v -9.807855 200.000000 1.950895
v -10.000000 0.000000 -0.000010
v -10.000000 200.000000 -0.000010
v -9.807851 0.000000 -1.950914
v -9.807851 200.000000 -1.950914
v -9.238791 0.000000 -3.826845
v -9.238791 200.000000 -3.826845
v -8.314690 0.000000 -5.555713
v -8.314690 200.000000 -5.555713
v -7.071059 0.000000 -7.071076
v -7.071059 200.000000 -7.071076
v -5.555691 0.000000 -8.314704
v -5.555691 200.000000 -8.314704
v -3.826821 0.000000 -9.238801
v -3.826821 200.000000 -9.238801
v -1.950888 0.000000 -9.807856
v -1.950888 200.000000 -9.807856
vt 1.000000 0.500000
vt 1.000000 1.000000
vt 0.968750 1.000000
vt 0.968750 0.500000
vt 0.937500 1.000000
vt 0.937500 0.500000
vt 0.906250 1.000000
vt 0.906250 0.500000
vt 0.875000 1.000000
vt 0.875000 0.500000
vt 0.843750 1.000000
vt 0.843750 0.500000
vt 0.812500 1.000000
vt 0.812500 0.500000
vt 0.781250 1.000000
vt 0.781250 0.500000
vt 0.750000 1.000000
vt 0.750000 0.500000
vt 0.718750 1.000000
vt 0.718750 0.500000
vt 0.687500 1.000000
vt 0.687500 0.500000
vt 0.656250 1.000000
vt 0.656250 0.500000
vt 0.625000 1.000000
vt 0.625000 0.500000
vt 0.593750 1.000000
vt 0.593750 0.500000
vt 0.562500 1.000000
vt 0.562500 0.500000
vt 0.531250 1.000000
vt 0.531250 0.500000
vt 0.500000 1.000000
vt 0.500000 0.500000
vt 0.468750 1.000000
vt 0.468750 0.500000
vt 0.437500 1.000000
vt 0.437500 0.500000
vt 0.406250 1.000000
vt 0.406250 0.500000
vt 0.375000 1.000000
vt 0.375000 0.500000
vt 0.343750 1.000000
vt 0.343750 0.500000
vt 0.312500 1.000000
vt 0.312500 0.500000
vt 0.281250 1.000000
vt 0.281250 0.500000
vt 0.250000 1.000000
vt 0.250000 0.500000
vt 0.218750 1.000000
vt 0.218750 0.500000
vt 0.187500 1.000000
vt 0.187500 0.500000
vt 0.156250 1.000000
vt 0.156250 0.500000
vt 0.125000 1.000000
vt 0.125000 0.500000
vt 0.093750 1.000000
vt 0.093750 0.500000
vt 0.062500 1.000000
vt 0.062500 0.500000
vt 0.296822 0.485388
vt 0.250000 0.490000
vt 0.203179 0.485389
vt 0.158156 0.471731
vt 0.116663 0.449553
vt 0.080295 0.419706
vt 0.050447 0.383337
vt 0.028269 0.341844
vt 0.014612 0.296822
vt 0.010000 0.250000
vt 0.014611 0.203179
vt 0.028269 0.158156
vt 0.050447 0.116663
vt 0.080294 0.080294
vt 0.116663 0.050447
vt 0.158156 0.028269
vt 0.203178 0.014612
vt 0.250000 0.010000
vt 0.296822 0.014612
vt 0.341844 0.028269
vt 0.383337 0.050447
vt 0.419706 0.080294
vt 0.449553 0.116663
vt 0.471731 0.158156
vt 0.485388 0.203178
vt 0.490000 0.250000
vt 0.485388 0.296822
vt 0.471731 0.341844
vt 0.449553 0.383337
vt 0.419706 0.419706
vt 0.383337 0.449553
vt 0.341844 0.471731
vt 0.031250 1.000000
vt 0.031250 0.500000
vt 0.000000 1.000000
vt 0.000000 0.500000
vt 0.750000 0.490000
vt 0.796822 0.485388
vt 0.841844 0.471731
vt 0.883337 0.449553
vt 0.919706 0.419706
vt 0.949553 0.383337
vt 0.971731 0.341844
vt 0.985388 0.296822
vt 0.990000 0.250000
vt 0.985388 0.203178
vt 0.971731 0.158156
vt 0.949553 0.116663
vt 0.919706 0.080294
vt 0.883337 0.050447
vt 0.841844 0.028269
vt 0.796822 0.014612
vt 0.750000 0.010000
vt 0.703178 0.014612
vt 0.658156 0.028269
vt 0.616663 0.050447
vt 0.580294 0.080294
vt 0.550447 0.116663
vt 0.528269 0.158156
vt 0.514611 0.203179
vt 0.510000 0.250000
vt 0.514612 0.296822
vt 0.528269 0.341844
vt 0.550447 0.383337
vt 0.580295 0.419706
vt 0.616663 0.449553
vt 0.658156 0.471731
vt 0.703179 0.485389
vn 0.0980 0.0000 -0.9952
vn 0.2903 0.0000 -0.9569
vn 0.4714 0.0000 -0.8819
vn 0.6344 0.0000 -0.7730
vn 0.7730 0.0000 -0.6344
vn 0.8819 0.0000 -0.4714
vn 0.9569 0.0000 -0.2903
vn 0.9952 0.0000 -0.0980
vn 0.9952 0.0000 0.0980
vn 0.9569 0.0000 0.2903
vn 0.8819 0.0000 0.4714
vn 0.7730 0.0000 0.6344
vn 0.6344 0.0000 0.7730
vn 0.4714 0.0000 0.8819
vn 0.2903 0.0000 0.9569
vn 0.0980 0.0000 0.9952
vn -0.0980 0.0000 0.9952
vn -0.2903 0.0000 0.9569
vn -0.4714 0.0000 0.8819
vn -0.6344 0.0000 0.7730
vn -0.7730 0.0000 0.6344
vn -0.8819 0.0000 0.4714
vn -0.9569 0.0000 0.2903
vn -0.9952 0.0000 0.0980
vn -0.9952 0.0000 -0.0980
vn -0.9569 0.0000 -0.2903
vn -0.8819 0.0000 -0.4714
vn -0.7730 0.0000 -0.6344
vn -0.6344 0.0000 -0.7730
vn -0.4714 0.0000 -0.8819
vn 0.0000 1.0000 -0.0000
vn -0.2903 0.0000 -0.9569
vn -0.0980 0.0000 -0.9952
vn 0.0000 -1.0000 0.0000
usemtl None
s off
f 1/1/1 2/2/1 4/3/1 3/4/1
f 3/4/2 4/3/2 6/5/2 5/6/2
f 5/6/3 6/5/3 8/7/3 7/8/3
f 7/8/4 8/7/4 10/9/4 9/10/4
f 9/10/5 10/9/5 12/11/5 11/12/5
f 11/12/6 12/11/6 14/13/6 13/14/6
f 13/14/7 14/13/7 16/15/7 15/16/7
f 15/16/8 16/15/8 18/17/8 17/18/8
f 17/18/9 18/17/9 20/19/9 19/20/9
f 19/20/10 20/19/10 22/21/10 21/22/10
f 21/22/11 22/21/11 24/23/11 23/24/11
f 23/24/12 24/23/12 26/25/12 25/26/12
f 25/26/13 26/25/13 28/27/13 27/28/13
f 27/28/14 28/27/14 30/29/14 29/30/14
f 29/30/15 30/29/15 32/31/15 31/32/15
f 31/32/16 32/31/16 34/33/16 33/34/16
f 33/34/17 34/33/17 36/35/17 35/36/17
f 35/36/18 36/35/18 38/37/18 37/38/18
f 37/38/19 38/37/19 40/39/19 39/40/19
f 39/40/20 40/39/20 42/41/20 41/42/20
f 41/42/21 42/41/21 44/43/21 43/44/21
f 43/44/22 44/43/22 46/45/22 45/46/22
f 45/46/23 46/45/23 48/47/23 47/48/23
f 47/48/24 48/47/24 50/49/24 49/50/24
f 49/50/25 50/49/25 52/51/25 51/52/25
f 51/52/26 52/51/26 54/53/26 53/54/26
f 53/54/27 54/53/27 56/55/27 55/56/27
f 55/56/28 56/55/28 58/57/28 57/58/28
f 57/58/29 58/57/29 60/59/29 59/60/29
f 59/60/30 60/59/30 62/61/30 61/62/30
f 4/63/31 2/64/31 64/65/31 62/66/31 60/67/31 58/68/31 56/69/31 54/70/31 52/71/31 50/72/31 48/73/31 46/74/31 44/75/31 42/76/31 40/77/31 38/78/31 36/79/31 34/80/31 32/81/31 30/82/31 28/83/31 26/84/31 24/85/31 22/86/31 20/87/31 18/88/31 16/89/31 14/90/31 12/91/31 10/92/31 8/93/31 6/94/31
f 61/62/32 62/61/32 64/95/32 63/96/32
f 63/96/33 64/95/33 2/97/33 1/98/33
f 1/99/34 3/100/34 5/101/34 7/102/34 9/103/34 11/104/34 13/105/34 15/106/34 17/107/34 19/108/34 21/109/34 23/110/34 25/111/34 27/112/34 29/113/34 31/114/34 33/115/34 35/116/34 37/117/34 39/118/34 41/119/34 43/120/34 45/121/34 47/122/34 49/123/34 51/124/34 53/125/34 55/126/34 57/127/34 59/128/34 61/129/34 63/130/34
o Cube_Cube.001
v -100.000000 294.000000 100.000000
v -100.000000 306.000000 100.000000
v -100.000000 294.000000 -100.000000
v -100.000000 306.000000 -100.000000
v 100.000000 294.000000 100.000000
v 100.000000 306.000000 100.000000
v 100.000000 294.000000 -100.000000
v 100.000000 306.000000 -100.000000
vt 0.375000 0.000000
vt 0.625000 0.000000
vt 0.625000 0.250000
vt 0.375000 0.250000
vt 0.625000 0.500000
vt 0.375000 0.500000
vt 0.625000 0.750000
vt 0.375000 0.750000
vt 0.625000 1.000000
vt 0.375000 1.000000
vt 0.125000 0.500000
vt 0.125000 0.750000
vt 0.875000 0.500000
vt 0.875000 0.750000
vn -1.0000 0.0000 0.0000
vn 0.0000 0.0000 -1.0000
vn 1.0000 0.0000 0.0000
vn 0.0000 0.0000 1.0000
vn 0.0000 -1.0000 0.0000
vn 0.0000 1.0000 0.0000
usemtl None
s off
f 65/131/35 66/132/35 68/133/35 67/134/35
f 67/134/36 68/133/36 72/135/36 71/136/36
f 71/136/37 72/135/37 70/137/37 69/138/37
f 69/138/38 70/137/38 66/139/38 65/140/38
f 67/141/39 71/136/39 69/138/39 65/142/39
f 72/135/40 68/143/40 66/144/40 70/137/40
o Cone
v 0.000000 200.000000 -20.000000
v 3.901806 200.000000 -19.615705
v 7.653669 200.000000 -18.477591
v 11.111404 200.000000 -16.629393
v 14.142136 200.000000 -14.142136
v 16.629393 200.000000 -11.111403
v 18.477591 200.000000 -7.653668
v 19.615705 200.000000 -3.901807
v 20.000000 200.000000 -0.000002
v 19.615705 200.000000 3.901804
v 18.477591 200.000000 7.653666
v 16.629393 200.000000 11.111403
v 14.142136 200.000000 14.142136
v 11.111403 200.000000 16.629393
v 7.653666 200.000000 18.477592
v 3.901802 200.000000 19.615705
v -0.000007 200.000000 20.000000
v -3.901814 200.000000 19.615704
v -7.653677 200.000000 18.477587
v -11.111414 200.000000 16.629387
v -14.142145 200.000000 14.142127
v -16.629400 200.000000 11.111393
v -18.477596 200.000000 7.653654
v 0.000000 300.000000 0.000000
v -19.615709 200.000000 3.901789
v -20.000000 200.000000 -0.000019
v -19.615702 200.000000 -3.901827
v -18.477581 200.000000 -7.653689
v -16.629379 200.000000 -11.111425
v -14.142118 200.000000 -14.142153
v -11.111382 200.000000 -16.629408
v -7.653642 200.000000 -18.477602
v -3.901776 200.000000 -19.615711
vt 0.250000 0.490000
vt 0.250000 0.250000
vt 0.296822 0.485388
vt 0.341844 0.471731
vt 0.383337 0.449553
vt 0.419706 0.419706
vt 0.449553 0.383337
vt 0.471731 0.341844
vt 0.485388 0.296822
vt 0.490000 0.250000
vt 0.485388 0.203178
vt 0.471731 0.158156
vt 0.449553 0.116663
vt 0.419706 0.080294
vt 0.383337 0.050447
vt 0.341844 0.028269
vt 0.296822 0.014612
vt 0.250000 0.010000
vt 0.203178 0.014612
vt 0.158156 0.028269
vt 0.116663 0.050447
vt 0.080294 0.080294
vt 0.050447 0.116663
vt 0.028269 0.158156
vt 0.014611 0.203179
vt 0.010000 0.250000
vt 0.014612 0.296822
vt 0.028269 0.341844
vt 0.050447 0.383337
vt 0.080295 0.419706
vt 0.116663 0.449553
vt 0.158156 0.471731
vt 0.203179 0.485389
vt 0.750000 0.490000
vt 0.796822 0.485388
vt 0.841844 0.471731
vt 0.883337 0.449553
vt 0.919706 0.419706
vt 0.949553 0.383337
vt 0.971731 0.341844
vt 0.985388 0.296822
vt 0.990000 0.250000
vt 0.985388 0.203178
vt 0.971731 0.158156
vt 0.949553 0.116663
vt 0.919706 0.080294
vt 0.883337 0.050447
vt 0.841844 0.028269
vt 0.796822 0.014612
vt 0.750000 0.010000
vt 0.703178 0.014612
vt 0.658156 0.028269
vt 0.616663 0.050447
vt 0.580294 0.080294
vt 0.550447 0.116663
vt 0.528269 0.158156
vt 0.514611 0.203179
vt 0.510000 0.250000
vt 0.514612 0.296822
vt 0.528269 0.341844
vt 0.550447 0.383337
vt 0.580295 0.419706
vt 0.616663 0.449553
vt 0.658156 0.471731
vt 0.703179 0.485389
vn 0.0961 0.1952 -0.9760
vn 0.2847 0.1952 -0.9385
vn 0.4623 0.1952 -0.8650
vn 0.6222 0.1952 -0.7581
vn 0.7581 0.1952 -0.6222
vn 0.8650 0.1952 -0.4623
vn 0.9385 0.1952 -0.2847
vn 0.9760 0.1952 -0.0961
vn 0.9760 0.1952 0.0961
vn 0.9385 0.1952 0.2847
vn 0.8650 0.1952 0.4623
vn 0.7581 0.1952 0.6222
vn 0.6222 0.1952 0.7581
vn 0.4623 0.1952 0.8650
vn 0.2847 0.1952 0.9385
vn 0.0961 0.1952 0.9760
vn -0.0961 0.1952 0.9760
vn -0.2847 0.1952 0.9385
vn -0.4623 0.1952 0.8650
vn -0.6222 0.1952 0.7581
vn -0.7581 0.1952 0.6222
vn -0.8650 0.1952 0.4623
vn -0.9385 0.1952 0.2847
vn -0.9760 0.1952 0.0961
vn -0.9760 0.1952 -0.0961
vn -0.9385 0.1952 -0.2847
vn -0.8650 0.1952 -0.4623
vn -0.7581 0.1952 -0.6222
vn -0.6222 0.1952 -0.7581
vn -0.4623 0.1952 -0.8650
vn -0.2847 0.1952 -0.9385
vn -0.0961 0.1952 -0.9760
vn 0.0000 -1.0000 -0.0000
usemtl None
s off
f 73/145/41 96/146/41 74/147/41
f 74/147/42 96/146/42 75/148/42
f 75/148/43 96/146/43 76/149/43
f 76/149/44 96/146/44 77/150/44
f 77/150/45 96/146/45 78/151/45
f 78/151/46 96/146/46 79/152/46
f 79/152/47 96/146/47 80/153/47
f 80/153/48 96/146/48 81/154/48
f 81/154/49 96/146/49 82/155/49
f 82/155/50 96/146/50 83/156/50
f 83/156/51 96/146/51 84/157/51
f 84/157/52 96/146/52 85/158/52
f 85/158/53 96/146/53 86/159/53
f 86/159/54 96/146/54 87/160/54
f 87/160/55 96/146/55 88/161/55
f 88/161/56 96/146/56 89/162/56
f 89/162/57 96/146/57 90/163/57
f 90/163/58 96/146/58 91/164/58
f 91/164/59 96/146/59 92/165/59
f 92/165/60 96/146/60 93/166/60
f 93/166/61 96/146/61 94/167/61
f 94/167/62 96/146/62 95/168/62
f 95/168/63 96/146/63 97/169/63
f 97/169/64 96/146/64 98/170/64
f 98/170/65 96/146/65 99/171/65
f 99/171/66 96/146/66 100/172/66
f 100/172/67 96/146/67 101/173/67
f 101/173/68 96/146/68 102/174/68
f 102/174/69 96/146/69 103/175/69
f 103/175/70 96/146/70 104/176/70
f 104/176/71 96/146/71 105/177/71
f 105/177/72 96/146/72 73/145/72
f 73/178/73 74/179/73 75/180/73 76/181/73 77/182/73 78/183/73 79/184/73 80/185/73 81/186/73 82/187/73 83/188/73 84/189/73 85/190/73 86/191/73 87/192/73 88/193/73 89/194/73 90/195/73 91/196/73 92/197/73 93/198/73 94/199/73 95/200/73 97/201/73 98/202/73 99/203/73 100/204/73 101/205/73 102/206/73 103/207/73 104/208/73 105/209/73
